<svg width="74" height="74" viewBox="0 0 74 74" fill="none" xmlns="http://www.w3.org/2000/svg">
<path d="M48.6202 5.35569C54.6882 2.14905 61.9341 6.78941 61.5598 13.6424C61.3389 17.6882 63.9004 21.3651 67.7723 22.5596C74.3304 24.5829 76.1728 32.9878 71.0624 37.5689C68.0453 40.2735 67.2567 44.6847 69.1498 48.2671C72.3565 54.3351 67.7161 61.5811 60.8632 61.2068C56.8173 60.9858 53.1405 63.5474 51.946 67.4192C49.9227 73.9774 41.5178 75.8198 36.9367 70.7094C34.232 67.6923 29.8208 66.9037 26.2384 68.7968C20.1704 72.0034 12.9244 67.3631 13.2987 60.5101C13.5197 56.4643 10.9581 52.7874 7.08631 51.5929C0.528152 49.5696 -1.31428 41.1647 3.79614 36.5836C6.81324 33.879 7.60186 29.4678 5.70873 25.8854C2.50208 19.8174 7.14244 12.5714 13.9954 12.9457C18.0413 13.1666 21.7181 10.6051 22.9126 6.73327C24.9359 0.175113 33.3408 -1.66732 37.9219 3.44311C40.6265 6.4602 45.0377 7.24883 48.6202 5.35569Z" fill="#B3B9FF"/>
<path d="M37.3003 48.7817C43.83 48.7817 49.1321 43.4798 49.1321 36.9499C49.1321 30.4203 43.8301 25.1182 37.3003 25.1182C30.7705 25.1182 25.4685 30.4201 25.4685 36.9499C25.4685 43.477 30.7705 48.7817 37.3003 48.7817ZM29.8251 35.0866C29.9536 34.6984 30.2864 34.4185 30.6848 34.3555L34.58 33.763L36.3221 30.0418C36.5036 29.6561 36.8818 29.4191 37.3003 29.4191C37.7188 29.4191 38.097 29.6561 38.2785 30.0418L40.0206 33.763L43.9158 34.3555C44.3142 34.421 44.6469 34.7009 44.7755 35.0866C44.9041 35.4623 44.8083 35.8833 44.5284 36.1732L41.6795 39.1003L42.3476 43.23C42.4233 43.6384 42.2518 44.0468 41.9064 44.2838C41.7224 44.4124 41.5056 44.4779 41.2913 44.4779C41.1072 44.4779 40.9358 44.4351 40.7643 44.3494L37.3003 42.4232L33.8362 44.3494C33.4706 44.5435 33.0294 44.5208 32.6966 44.2838C32.3512 44.0468 32.1798 43.6384 32.2554 43.23L32.921 39.1003L30.0695 36.1732C29.7922 35.8833 29.694 35.4648 29.8251 35.0866Z" fill="black"/>
<path d="M37.3001 55.2356C47.3796 55.2356 55.5861 47.0291 55.5861 36.9497C55.5861 26.8676 47.3796 18.6611 37.3001 18.6611C27.2206 18.6611 19.0142 26.8676 19.0142 36.9471C19.0142 47.0266 27.2206 55.2356 37.3001 55.2356ZM37.3001 22.9648C45.0122 22.9648 51.285 29.2349 51.285 36.9497C51.285 44.6617 45.0149 50.9346 37.3001 50.9346C29.588 50.9346 23.3152 44.6645 23.3152 36.9497C23.3152 29.235 29.5879 22.9648 37.3001 22.9648Z" fill="black"/>
</svg>
